<svg id="Capa_1" enable-background="new 0 0 512 512" height="512" viewBox="0 0 512 512" width="512" xmlns="http://www.w3.org/2000/svg"><g><path d="m412.204 449.186c-1.729-21.771-13.692-41.368-30.616-49.149-14.104-6.485-29.325-3.764-41.758 7.47-9.396 8.496-18.399 12.634-24.669 11.354-3.719-.757-6.625-3.5-8.889-8.39-2.756-5.935-4.213-14.721-4.213-25.411v-13.08h13.681c2.841 0 5.438-1.605 6.708-4.146l26.709-53.418 63.196 27.084c.947.406 1.952.606 2.953.606 1.447 0 2.886-.418 4.13-1.239 2.104-1.388 3.371-3.74 3.371-6.261v-69.697c0-1.817-.659-3.572-1.855-4.939l-67.842-77.533v-15.667c0-13.132-1.653-26.244-4.915-38.972-1.027-4.012-5.11-6.434-9.127-5.403-4.013 1.028-6.433 5.114-5.404 9.127 2.95 11.512 4.446 23.372 4.446 35.248v130.47h-164.22v-130.47c0-17.417 3.157-34.487 9.379-50.726.555-1.44 17.965-42.77 17.965-42.77h109.533l11.233 26.622c1.61 3.816 6.009 5.601 9.826 3.994 3.816-1.61 5.604-6.01 3.994-9.826l-13.17-31.21c-.036-.086-.087-.162-.126-.246s-.067-.171-.11-.254l-16.245-31.693c-9.693-18.912-28.917-30.661-50.169-30.661s-40.476 11.749-50.169 30.661l-16.245 31.693c-.042.083-.071.17-.11.253-.039.084-.09.161-.126.247 0 0-19.472 46.222-20.084 47.813-6.885 17.969-10.376 36.845-10.376 56.104v15.667l-67.842 77.532c-1.196 1.367-1.855 3.122-1.855 4.939v69.697c0 2.521 1.267 4.874 3.371 6.261 1.244.82 2.683 1.239 4.13 1.239 1.001 0 2.006-.2 2.953-.606l63.196-27.084 26.709 53.418c1.271 2.541 3.867 4.146 6.708 4.146h13.681v13.08c0 10.69-1.457 19.477-4.216 25.419-2.261 4.883-5.167 7.625-8.886 8.382-6.278 1.282-15.272-2.858-24.671-11.356-12.43-11.232-27.652-13.953-41.756-7.469-16.924 7.781-28.887 27.378-30.616 49.149-27.325 3.589-48.486 27.027-48.486 55.315 0 4.142 3.357 7.5 7.5 7.5h394.38c4.143 0 7.5-3.358 7.5-7.5 0-28.288-21.161-51.726-48.486-55.314zm-193.025-411.684c7.115-13.879 21.223-22.502 36.821-22.502s29.706 8.623 36.82 22.502l10.645 20.768h-94.931zm188.629 230.225v55.505l-54.697-23.441v-94.575zm-303.616 0 54.697-62.511v94.575l-54.697 23.441zm-37.191 229.273c3.531-18.921 20.169-33.29 40.099-33.29 2.022 0 3.96-.817 5.372-2.266 1.411-1.449 2.178-3.407 2.125-5.429-.478-18.437 8.809-36.248 22.081-42.351 8.647-3.973 17.439-2.254 25.432 4.968 13.354 12.073 26.395 17.235 37.726 14.927 5.91-1.205 14.091-5.093 19.498-16.771 3.721-8.013 5.607-18.688 5.607-31.729v-13.08h15.59c4.143 0 7.5-3.358 7.5-7.5s-3.357-7.5-7.5-7.5h-39.636l-22.369-44.74h154.949l-22.369 44.74h-37.896c-4.143 0-7.5 3.358-7.5 7.5s3.357 7.5 7.5 7.5h13.85v13.08c0 13.041 1.887 23.716 5.604 31.721 5.41 11.686 13.591 15.574 19.501 16.779 11.329 2.307 24.373-2.853 37.724-14.925 7.995-7.225 16.791-8.943 25.434-4.969 13.272 6.103 22.559 23.914 22.081 42.351-.053 2.022.714 3.979 2.125 5.429 1.412 1.449 3.35 2.266 5.372 2.266 19.93 0 36.567 14.369 40.099 33.29h-377.999z"/><path d="m256 225.69c-20.097 0-37.699-13.553-42.807-32.958-1.055-4.006-5.158-6.401-9.162-5.344-4.006 1.054-6.398 5.156-5.344 9.162 6.84 25.99 30.407 44.141 57.313 44.141 32.682 0 59.27-26.593 59.27-59.28 0-32.682-26.588-59.27-59.27-59.27-24.25 0-45.811 14.52-54.93 36.99-1.558 3.838.291 8.212 4.129 9.77 3.842 1.559 8.212-.292 9.77-4.129 6.812-16.785 22.918-27.63 41.031-27.63 24.41 0 44.27 19.859 44.27 44.27 0 24.414-19.86 44.278-44.27 44.278z"/></g></svg>